<?xml version="1.0" encoding="UTF-8" standalone="no"?>
<!-- Created with Inkscape (http://www.inkscape.org/) -->

<svg
   width="500"
   height="500"
   viewBox="0 0 132.29166 132.29167"
   version="1.1"
   id="svg72"
   inkscape:version="1.1 (c68e22c387, 2021-05-23)"
   sodipodi:docname="icon.svg"
   xmlns:inkscape="http://www.inkscape.org/namespaces/inkscape"
   xmlns:sodipodi="http://sodipodi.sourceforge.net/DTD/sodipodi-0.dtd"
   xmlns="http://www.w3.org/2000/svg"
   xmlns:svg="http://www.w3.org/2000/svg">
  <sodipodi:namedview
     id="namedview74"
     pagecolor="#ffffff"
     bordercolor="#666666"
     borderopacity="1.0"
     inkscape:pageshadow="2"
     inkscape:pageopacity="0.0"
     inkscape:pagecheckerboard="0"
     inkscape:document-units="px"
     showgrid="false"
     inkscape:zoom="0.73940797"
     inkscape:cx="106.84224"
     inkscape:cy="237.35205"
     inkscape:window-width="1920"
     inkscape:window-height="1015"
     inkscape:window-x="0"
     inkscape:window-y="0"
     inkscape:window-maximized="1"
     inkscape:current-layer="layer1"
     units="px"
     inkscape:showpageshadow="false" />
  <defs
     id="defs69">
    <filter
       style="color-interpolation-filters:sRGB"
       inkscape:label="Drop Shadow"
       id="filter3349"
       x="-0.039492356"
       y="-0.039957772"
       width="1.111895"
       height="1.1132137">
      <feFlood
         flood-opacity="0.498039"
         flood-color="rgb(0,0,0)"
         result="flood"
         id="feFlood3339" />
      <feComposite
         in="flood"
         in2="SourceGraphic"
         operator="in"
         result="composite1"
         id="feComposite3341" />
      <feGaussianBlur
         in="composite1"
         stdDeviation="1"
         result="blur"
         id="feGaussianBlur3343" />
      <feOffset
         dx="2"
         dy="2"
         result="offset"
         id="feOffset3345" />
      <feComposite
         in="SourceGraphic"
         in2="offset"
         operator="over"
         result="composite2"
         id="feComposite3347" />
    </filter>
  </defs>
  <g
     inkscape:label="Camada 1"
     inkscape:groupmode="layer"
     id="layer1">
    <g
       id="g3353"
       transform="matrix(5.2418172,0,0,5.2290825,-214.12609,-572.84311)"
       style="fill:#f0563d;fill-opacity:1;stroke:none">
      <path
         style="opacity:1;fill:#f0563d;fill-opacity:1;stroke:none;stroke-width:0.239446;stroke-linecap:square;stroke-linejoin:round;stroke-miterlimit:4;stroke-dasharray:none;stroke-opacity:1;filter:url(#filter3349)"
         d="m 180.11752,490.70534 c -0.26339,-0.0861 -0.8388,-0.35252 -1.2787,-0.59207 -0.64093,-0.34902 -0.7728,-0.54314 -0.66386,-0.97719 0.17484,-0.69661 -1.05013,-1.96143 -1.66946,-1.72377 -0.49563,0.19019 -1.29662,-0.47399 -1.29662,-1.07516 0,-0.2352 -0.10775,-0.49424 -0.23944,-0.57563 -0.37304,-0.23055 -0.28395,-0.69999 0.23944,-1.26179 0.29418,-0.31576 0.47889,-0.845 0.47889,-1.37212 0,-0.52711 -0.18471,-1.05635 -0.47889,-1.37211 -0.5146,-0.55236 -0.62767,-1.2613 -0.23944,-1.50124 0.52317,-0.32334 0.23603,-1.82417 -0.59862,-3.12895 -0.46093,-0.72055 -0.83806,-1.39559 -0.83806,-1.50008 0,-0.10449 -0.26938,-0.74838 -0.59862,-1.43085 -0.32923,-0.68248 -0.59861,-1.39667 -0.59861,-1.58708 0,-0.19042 -0.10775,-0.41281 -0.23945,-0.4942 -0.13169,-0.0814 -0.23944,-0.41809 -0.23944,-0.74821 0,-0.33013 -0.13075,-0.83558 -0.29056,-1.12324 -0.36179,-0.65124 -0.61332,-2.72732 -0.81667,-6.74078 -0.2031,-4.00842 0.23195,-8.69394 1.04566,-11.26179 0.75536,-2.38371 0.73258,-2.32047 0.99181,-2.75362 0.11823,-0.19755 0.46563,-0.89793 0.772,-1.5564 0.5676,-1.21994 2.06531,-3.75494 2.95371,-4.99942 1.13024,-1.58325 5.08406,-5.44868 6.67779,-6.52851 0.94384,-0.63949 1.7738,-1.23948 1.84436,-1.3333 0.24513,-0.32594 3.38095,-1.8647 3.80005,-1.8647 0.23187,0 0.49837,-0.0768 0.59223,-0.17064 0.2935,-0.29351 2.3979,-1.02619 2.94798,-1.02639 0.28854,-1.1e-4 0.59121,-0.10795 0.67261,-0.23965 0.0814,-0.13169 0.51349,-0.23944 0.96023,-0.23944 0.44673,0 1.43277,-0.16163 2.19119,-0.35917 1.57806,-0.41103 6.6766,-0.46868 8.58143,-0.097 0.65847,0.12847 1.76491,0.29719 2.45874,0.37491 0.69383,0.0777 1.31976,0.23557 1.39095,0.35075 0.0712,0.11519 0.4796,0.20943 0.90759,0.20943 0.42799,0 0.98733,0.1582 1.24296,0.35155 0.25564,0.19336 0.65483,0.35498 0.88708,0.35917 0.23225,0.004 0.60938,0.10291 0.83806,0.21937 0.22868,0.11646 1.27779,0.62385 2.33135,1.12754 1.05356,0.50368 2.24899,1.16264 2.65651,1.46437 0.40751,0.30172 0.82809,0.54858 0.93461,0.54858 0.10652,0 1.231,1.05057 2.49884,2.3346 2.11203,2.13898 3.6076,4.03556 3.6076,4.57488 0,0.1184 0.16163,0.3494 0.35917,0.51335 0.19754,0.16394 0.35917,0.50039 0.35917,0.74765 0,0.24727 0.10775,0.44958 0.23944,0.44958 0.1317,0 0.23945,0.20914 0.23945,0.46476 0,0.25562 0.10775,0.53135 0.23945,0.61274 0.13169,0.0814 0.23944,0.42166 0.23944,0.75615 0,0.33448 0.15864,0.94769 0.35252,1.36268 0.25531,0.54644 0.37665,1.91016 0.43999,4.94483 0.0891,4.26902 0.17806,4.98615 0.80192,6.46504 0.19444,0.46093 0.46656,1.10744 0.60471,1.43668 0.13816,0.32923 0.34637,0.78571 0.4627,1.01439 0.11633,0.22868 0.21151,0.52205 0.21151,0.65193 0,0.12988 0.25493,0.80479 0.56651,1.49979 0.31158,0.695 0.75364,1.74851 0.98237,2.34114 0.22872,0.59263 0.51254,1.26461 0.63072,1.49329 0.4222,0.817 0.21557,1.43412 -0.76922,2.29734 -0.54125,0.47444 -1.35651,0.99064 -1.8117,1.14713 -0.45518,0.15649 -1.01746,0.45633 -1.24949,0.66632 -0.6016,0.54444 -0.98368,2.4406 -0.74867,3.71544 0.10734,0.58224 0.21148,2.49882 0.23142,4.25906 0.0472,4.16499 -0.35761,5.70832 -1.90252,7.25322 -1.81819,1.8182 -1.61053,1.79585 -16.68543,1.79585 h -13.21347 l -0.73426,-0.70328 c -0.63321,-0.60649 -0.73426,-0.87291 -0.73426,-1.93585 0,-1.04479 0.10032,-1.32068 0.65848,-1.8109 1.30105,-1.1427 1.68041,-1.17695 13.03636,-1.17695 10.03272,0 10.73021,-0.0276 11.7166,-0.46395 1.05499,-0.46667 2.09622,-1.4013 2.55085,-2.28968 0.25897,-0.50606 0.65486,-2.62498 0.60395,-3.23252 -0.19035,-2.27141 -0.66648,-5.45024 -0.85155,-5.68528 -0.15847,-0.20126 -0.0993,-0.58925 0.18247,-1.19723 0.55398,-1.19519 1.24746,-1.92584 2.26944,-2.39108 1.34241,-0.61112 1.91916,-1.25054 1.91916,-2.1277 0,-0.43021 -0.0868,-0.83584 -0.19288,-0.9014 -0.10609,-0.0656 -0.49281,-0.74536 -0.85938,-1.51067 -0.36657,-0.7653 -0.76465,-1.57856 -0.88462,-1.80724 -0.11997,-0.22868 -0.22156,-0.60581 -0.22575,-0.83806 -0.004,-0.23226 -0.16581,-0.63144 -0.35917,-0.88708 -0.19335,-0.25564 -0.35155,-0.92272 -0.35155,-1.4824 0,-0.55969 -0.10775,-1.08421 -0.23945,-1.1656 -0.13276,-0.082 -0.23944,-1.17354 -0.23944,-2.44979 0,-2.32075 -0.57446,-6.21608 -0.97881,-6.63719 -0.12013,-0.12511 -0.2263,-0.44836 -0.23592,-0.71833 -0.01,-0.26998 -0.22353,-0.81412 -0.47534,-1.20921 -0.25181,-0.39508 -0.56849,-0.97122 -0.70374,-1.2803 -0.34463,-0.7876 -3.80291,-4.11964 -4.93087,-4.75088 -0.99735,-0.55815 -2.09027,-1.09416 -3.45039,-1.69222 -0.46094,-0.20267 -1.02516,-0.46039 -1.25384,-0.57271 -0.22868,-0.11232 -0.68027,-0.20422 -1.00352,-0.20422 -0.32325,0 -0.65432,-0.10775 -0.73572,-0.23944 -0.0814,-0.1317 -0.41808,-0.23945 -0.74821,-0.23945 -0.33012,0 -0.83558,-0.13075 -1.12323,-0.29055 -1.72968,-0.96091 -10.50433,-0.95036 -12.30774,0.0148 -0.28339,0.15167 -0.78536,0.27576 -1.11549,0.27576 -0.33012,0 -0.66681,0.10775 -0.74821,0.23945 -0.0814,0.13169 -0.30992,0.23944 -0.50785,0.23944 -0.63631,0 -3.02075,1.23124 -5.38607,2.78118 -2.08389,1.36553 -5.71921,4.8053 -5.71921,5.41157 0,0.11434 -0.19462,0.41679 -0.43248,0.67211 -0.50667,0.54384 -2.44087,4.28731 -2.44087,4.72408 0,0.16441 -0.10775,0.29893 -0.23944,0.29893 -0.1317,0 -0.23945,0.31689 -0.23945,0.70421 0,0.38731 -0.0948,0.76277 -0.21059,0.83436 -0.18889,0.11674 -0.48738,1.31162 -1.26056,5.04619 -0.40857,1.97345 -0.004,9.71079 0.53789,10.28421 0.11821,0.12511 0.21559,0.44836 0.2164,0.71834 8.1e-4,0.26997 0.16244,0.79949 0.35917,1.17671 0.19673,0.37721 0.35769,0.82322 0.35769,0.99112 0,0.1679 0.42374,1.0984 0.94164,2.06778 0.76285,1.42784 1.06171,1.77722 1.574,1.83997 0.3478,0.0426 0.83994,0.28505 1.09365,0.53876 0.65525,0.65524 1.62895,0.57921 2.43171,-0.18988 0.58124,-0.55686 0.74737,-0.60888 1.14722,-0.35917 0.25715,0.1606 0.60669,0.292 0.77676,0.292 0.47511,0 1.13397,0.89579 1.13397,1.54175 0,0.62005 0.99093,1.56746 1.64855,1.57616 0.39428,0.005 1.70369,1.64743 1.70369,2.13672 0,0.14821 -0.18448,0.55103 -0.40997,0.89516 -0.51749,0.78979 -0.42078,2.1184 0.19933,2.73852 0.25716,0.25715 0.42787,0.54443 0.37936,0.6384 -0.0485,0.094 -0.27299,0.57491 -0.49886,1.06877 -0.37877,0.82818 -0.63237,1.021 -1.20246,0.91426 -0.45615,-0.0854 -1.81964,1.51911 -1.81964,2.1413 0,1.04623 -2.21077,1.87325 -2.87335,1.07488 -0.44351,-0.5344 -2.05295,-0.46124 -2.63391,0.11973 -0.26339,0.26339 -0.50583,0.46815 -0.53875,0.45502 -0.0329,-0.0131 -0.27537,-0.0943 -0.53876,-0.1804 z m 3.92248,-4.59788 c 1.6357,-0.85257 2.25971,-2.99315 1.3922,-4.77569 -1.03365,-2.12391 -4.43028,-2.25847 -5.84985,-0.23175 -0.58265,0.83184 -0.48863,3.1526 0.16118,3.9787 1.20141,1.52734 2.66675,1.8782 4.29647,1.02874 z"
         id="path3179"
         transform="matrix(0.26458335,0,0,0.26458335,1.9241535e-5,0)" />
      <path
         style="opacity:1;fill:#f0563d;fill-opacity:1;stroke:none;stroke-width:0.239446;stroke-linecap:square;stroke-linejoin:round;stroke-miterlimit:4;stroke-dasharray:none;stroke-opacity:1"
         d="m 187.58887,477.34962 c -0.0925,-0.0925 -0.16824,-0.47692 -0.16824,-0.85419 0,-0.44264 -0.14864,-0.73345 -0.41904,-0.81987 -0.23046,-0.0737 -0.65119,-0.24461 -0.93495,-0.3799 -0.28375,-0.13528 -0.63394,-0.17303 -0.7782,-0.0839 -0.14425,0.0892 -0.26227,0.007 -0.26227,-0.18328 0,-0.6073 -0.89511,-0.61827 -1.70481,-0.0209 -0.87633,0.64654 -0.7475,0.707 -2.74072,-1.28622 -1.08745,-1.08745 -1.25501,-1.36686 -1.04972,-1.75045 0.13436,-0.25105 0.34098,-0.45646 0.45917,-0.45646 0.5044,0 0.45279,-0.95004 -0.109,-2.00662 -0.33089,-0.62233 -0.60163,-1.27888 -0.60163,-1.45899 0,-0.18011 -0.29631,-0.3923 -0.65847,-0.47153 l -0.65848,-0.14406 0.0763,-2.26942 c 0.042,-1.24819 0.16196,-2.26943 0.26666,-2.26943 0.40978,0 1.45289,-1.29173 1.45289,-1.79918 0,-0.29515 0.16163,-0.67078 0.35917,-0.83473 0.51799,-0.42989 0.44373,-0.90228 -0.2417,-1.53752 l -0.60088,-0.55687 1.57027,-1.52685 c 0.86365,-0.83976 1.6805,-1.56533 1.81522,-1.61237 0.13473,-0.047 0.49369,0.14816 0.79771,0.43377 l 0.55276,0.51929 1.04638,-0.47431 c 0.57552,-0.26087 1.28883,-0.54414 1.58515,-0.62949 0.29631,-0.0854 0.55118,-0.2826 0.56637,-0.43835 0.0152,-0.15574 0.0526,-0.39092 0.0832,-0.52261 0.0306,-0.1317 0.0721,-0.37818 0.0921,-0.54774 0.0275,-0.2322 0.58316,-0.2913 2.25135,-0.23945 2.18877,0.068 2.21573,0.0762 2.28739,0.69363 0.0428,0.36909 0.31218,0.75305 0.65812,0.9382 0.76697,0.41047 1.07288,0.0919 0.37866,-0.39438 -0.3353,-0.23486 -0.51025,-0.57101 -0.46444,-0.89241 0.0869,-0.60964 -1.25077,-1.90664 -1.76348,-1.7099 -0.18248,0.07 -0.52328,-0.0127 -0.75732,-0.18383 -0.46497,-0.34 -0.56485,-1.75218 -0.27128,-3.83558 0.0893,-0.63409 0.0594,-1.27383 -0.0673,-1.43668 -0.31205,-0.40114 -0.17485,-2.2614 0.2001,-2.71318 0.16767,-0.20203 0.51041,-0.31357 0.76166,-0.24786 0.67665,0.17694 1.85138,-0.96329 1.85138,-1.797 0,-0.53918 0.17951,-0.76376 0.89792,-1.12343 0.78223,-0.39161 0.99048,-0.40906 1.61626,-0.13539 0.94752,0.41437 2.71481,0.41551 3.50682,0.002 0.55458,-0.28936 0.7537,-0.27669 1.59893,0.10173 0.77482,0.3469 0.94013,0.52917 0.83712,0.92307 -0.15213,0.58175 1.07552,1.93967 1.76085,1.94768 0.47857,0.006 1.7544,1.63892 1.7544,2.24599 0,0.20831 -0.2155,0.51333 -0.47889,0.67782 -0.68632,0.42861 -0.68632,2.24078 0,2.45861 0.58732,0.18641 0.60385,0.89357 0.0476,2.03529 -0.31044,0.63714 -0.58037,0.85701 -1.12587,0.9171 -1.00146,0.11031 -1.79503,0.91661 -1.79503,1.82382 0,0.59726 -0.1517,0.81799 -0.7782,1.13235 -1.37734,0.6911 -1.66149,0.71797 -2.14171,0.20251 -0.37172,-0.399 -0.63419,-0.45919 -1.4604,-0.33491 -0.55397,0.0833 -1.10959,0.24548 -1.2347,0.36033 -0.12511,0.11486 -0.52918,0.20883 -0.89793,0.20883 -0.86907,0 -0.85369,0.28088 0.037,0.67513 0.63489,0.28103 0.78177,0.25817 1.43253,-0.22297 l 0.72511,-0.53609 1.4095,1.29906 c 1.73495,1.59901 1.85297,1.83603 1.23946,2.48908 -0.46774,0.49789 -0.67572,1.56163 -0.30607,1.56547 0.24295,0.003 0.7782,1.18691 0.7782,1.72199 0,0.25945 0.17593,0.43116 0.44178,0.43116 0.74656,0 1.16247,0.76061 1.42992,2.61504 0.30287,2.10001 0.1254,2.59146 -0.9741,2.69748 -0.60869,0.0587 -0.79531,0.19818 -0.858,0.64129 -0.0441,0.31146 -0.28611,0.90409 -0.53786,1.31696 -0.58295,0.95601 -0.57847,1.40687 0.0194,1.9479 0.26339,0.23836 0.4789,0.55484 0.4789,0.70328 0,0.14844 -0.68245,0.9297 -1.51655,1.73614 l -1.51654,1.46625 -0.74927,-0.58639 -0.74927,-0.5864 -1.67368,0.77978 c -1.48356,0.69119 -1.68178,0.86236 -1.74491,1.5069 l -0.0712,0.72714 -2.04663,0.0685 c -1.12565,0.0377 -2.12234,-0.007 -2.21488,-0.0998 z m 4.91256,-7.41491 c 1.14776,-0.69327 2.34202,-2.18938 2.34202,-2.93396 0,-0.2675 0.10775,-0.55296 0.23945,-0.63435 0.61118,-0.37773 0.12077,-2.81952 -0.91373,-4.54948 -0.5683,-0.95036 -3.17096,-2.26189 -4.50323,-2.26927 -0.94689,-0.005 -2.67642,0.62174 -3.45229,1.25149 -1.48713,1.20709 -2.386,3.6678 -1.9286,5.27965 0.90659,3.19473 2.4646,4.47176 5.46041,4.47566 1.43714,0.002 1.89868,-0.10191 2.75597,-0.61974 z m 5.77611,-19.37135 c 0.88515,-0.36984 1.24149,-0.82986 1.76234,-2.27513 0.51678,-1.43396 -0.30063,-3.25916 -1.77238,-3.95755 -1.91828,-0.91028 -4.23396,0.10698 -4.8244,2.11932 -0.28604,0.97485 -0.27452,1.22688 0.101,2.21016 0.74409,1.94837 2.72199,2.74363 4.73344,1.9032 z"
         id="path3181"
         transform="matrix(0.26458335,0,0,0.26458335,1.9241535e-5,0)" />
    </g>
  </g>
</svg>
